#!OML:ASF E:\acrobat2\Project_11_07_03\Capture day 1\Session 1\Acrobat.ASF
:FULLY-SPECIFIED
:DEGREES
1668
root 11.1529 4.15172 10.6304 -82.5439 2.91446 168.791
lowerback -15.009145366814005 -5.76349693714744 -3.326302923949917
upperback -7.927485224813531 -8.376321497439863 10.738437725505738
thorax -0.11548013529450965 -5.868324398052362 9.844966267246349
lowerneck -2.4273185039745218 -18.606802403274756 13.479656576519508
upperneck -30.302283552418718 -23.354410426787457 -0.17653525671346
head -10.785399102386766 -8.648055049464064 -1.9103279127647521
rclavicle 2.38542e-15 -1.58034e-14
rhumerus 7.200615506908546 -31.20592019676506 19.781195473383534
rradius 53.94862610954169
rwrist -27.801859744648443
rhand -25.032516788149433 -36.72754392801671
rfingers 8.068352157100957
rthumb 3.9300890070341645 -68.62604095914644
lclavicle 2.38542e-15 -1.58034e-14
lhumerus -7.597428914009766 4.901571477444163 -53.97976240111937
lradius 1.6205285645987133
lwrist 28.11602290827616
lhand -16.0310995891237 -30.559389750140305
lfingers 8.64582023833696
lthumb 10.101797352511305 -2.2062560365807444
rfemur 1.9183237012071725 1.2600048691891557 0.936883604432984
rtibia 32.099319767316615
rfoot 19.917249007971964 -18.447787571079658
rtoes 26.949067402317205
lfemur -9.577384529937635 -13.215570709898428 -1.6354193250457056
ltibia 57.67922513439494
lfoot 40.910067955948115 6.056739636238842
ltoes 4.47688
1669
root 11.1529 4.15172 10.6304 -82.5439 2.91446 168.791
lowerback -15.092320203403318 -5.6836797553583995 -3.3714113512644652
upperback -7.8983706679489805 -8.475131159479096 10.713488577882137
thorax -0.0720596775206798 -5.943704923772176 9.909817688722788
lowerneck -2.421085023129656 -18.621218439370793 13.563049230629886
upperneck -30.35560176980254 -23.30322733409834 -0.18972215435870732
head -10.748680686286074 -8.685087826324635 -1.926107523966944
rclavicle 2.38542e-15 -1.58034e-14
rhumerus 10.162284759586809 -28.028482246390688 16.132955710652855
rradius 54.38604612102213
rwrist -27.85518299595014
rhand -25.10624459825704 -36.73379787330536
rfingers 8.055279923200692
rthumb 3.912991217711321 -68.59391812874502
lclavicle 2.38542e-15 -1.58034e-14
lhumerus -7.102293030607928 3.0435318676281105 -56.214401412990306
lradius 4.382077925669179
lwrist 28.136578809399115
lhand -16.071900866280444 -30.486902231325587
lfingers 8.71951541158804
lthumb 10.167152106618385 -2.137591929302395
rfemur 1.5129692490788686 0.9040625058698785 1.1073648631527946
rtibia 29.099996572005676
rfoot 19.419429687279933 -18.911393504423767
rtoes 27.399721396034863
lfemur -9.323907295318431 -13.37958757980125 -1.2436172677406243
ltibia 55.60596422386091
lfoot 41.251820093154414 6.255424037014772
ltoes 4.47688
1670
root 11.1529 4.15172 10.6304 -82.5439 2.91446 168.791
lowerback -15.17300069942945 -5.654401239385047 -3.464746072258726
upperback -7.858858047172891 -8.516419441080098 10.744173888093913
thorax -0.07159768616037543 -5.907177714872134 10.005286408590745
lowerneck -2.4838770974674285 -18.57591938191309 13.475314097281977
upperneck -30.44994342190296 -23.37066822892126 -0.17289072757886495
head -10.722172369272606 -8.690118111034902 -1.900870129054642
rclavicle 2.38542e-15 -1.58034e-14
rhumerus 5.428555119569589 -25.68502725392006 16.220109054414834
rradius 51.7968923299749
rwrist -27.856973088092264
rhand -25.07265165882509 -36.72769410580819
rfingers 8.063782086036499
rthumb 4.005540063234721 -68.53691162924954
lclavicle 2.38542e-15 -1.58034e-14
lhumerus -7.562189298962023 4.275392953450447 -53.944230349260366
lradius 5.728567241897332
lwrist 28.09137224286896
lhand -16.066823668621822 -30.481189508630585
lfingers 8.687178255007032
lthumb 10.210692446024426 -2.09500242970272
rfemur 1.9849506168541025 0.9665043938373654 1.2387753384024225
rtibia 33.26184065082264
rfoot 19.60217706533812 -19.288137480520895
rtoes 27.816053541648767
lfemur -9.143136388166331 -13.057486539951284 -1.3684631858355392
ltibia 53.72004919247079
lfoot 40.871552599187496 6.731996311240085
ltoes 4.47688
1671
root 11.1529 4.15172 10.6304 -82.5439 2.91446 168.791
lowerback -15.08582720872995 -5.691832053493072 -3.397140943488376
upperback -7.763458480988387 -8.540643343549132 10.706507238505809
thorax -0.05258684975330667 -5.921926399113456 10.028750781465831
lowerneck -2.42298882752807 -18.49193338633775 13.555681827231036
upperneck -30.509627973240235 -23.424603267405256 -0.2488967100080975
head -10.667172331782293 -8.782197450883647 -1.815861108582118
rclavicle 2.38542e-15 -1.58034e-14
rhumerus 7.396200945485905 -25.10559931783706 19.682579934261405
rradius 51.310972702179946
rwrist -27.848232609130257
rhand -25.163900833814523 -36.65527301879264
rfingers 8.033421884645481
rthumb 4.009497964164752 -68.45423934981255
lclavicle 2.38542e-15 -1.58034e-14
lhumerus -8.526082468799805 1.6429046727552046 -54.787968555936686
lradius 6.0490358700618625
lwrist 28.173381345220363
lhand -16.153721776439497 -30.423670859383076
lfingers 8.655101099797406
lthumb 10.16963683392867 -2.088876782252244
rfemur 2.3570961859315798 0.5770258050100302 0.8413089858387228
rtibia 31.553409041890443
rfoot 20.01750845327328 -19.32741233927819
rtoes 27.954036762424888
lfemur -8.777221495337917 -13.356341339342336 -1.8499602742204067
ltibia 56.50002718185577
lfoot 40.596182472905994 7.228906621088014
ltoes 4.47688
1672
root 11.1529 4.15172 10.6304 -82.5439 2.91446 168.791
lowerback -15.106652492796165 -5.609861047008594 -3.4860371304720705
upperback -7.834539112172236 -8.579402756189987 10.738833773661883
thorax -0.09931654259666578 -5.974379071027327 10.117184123748796
lowerneck -2.4010809613675037 -18.396789527787902 13.491031571002496
upperneck -30.420288442177466 -23.35252631721781 -0.29774968413738134
head -10.738684018342546 -8.86916905440615 -1.872891329881236
rclavicle 2.38542e-15 -1.58034e-14
rhumerus 9.013391082723329 -20.94646636251081 23.874494809088276
rradius 53.03059854160995
rwrist -27.778231303185013
rhand -25.173957103100573 -36.57404373069177
rfingers 8.038969288957658
rthumb 4.031748139229408 -68.54985796116453
lclavicle 2.38542e-15 -1.58034e-14
lhumerus -10.557992448022038 -2.6915764499029344 -51.82205219088797
lradius 7.594318567386062
lwrist 28.13520809729173
lhand -16.206734753429867 -30.417222748038586
lfingers 8.595926918468155
lthumb 10.129982159415045 -2.067612151594074
rfemur 2.2732440538810046 0.45449753825571526 1.2351333600701095
rtibia 33.34528742544337
rfoot 20.111087285380915 -19.795322254391117
rtoes 28.158333105933114
lfemur -8.728316844233932 -13.852091297273931 -1.4034072628227978
ltibia 55.44982344385636
lfoot 40.90008900030817 7.4637848374827485
ltoes 4.47688
1673
root 11.1529 4.15172 10.6304 -82.5439 2.91446 168.791
lowerback -15.110477492491981 -5.589473930725908 -3.4238383612731376
upperback -7.799909962569626 -8.626272747238431 10.763717613725833
thorax -0.0366429983658664 -5.927936045693601 10.046691221757333
lowerneck -2.3977771548704254 -18.49059151535543 13.534556146923505
upperneck -30.485967086550716 -23.447097597017613 -0.216474064843931
head -10.696241280090536 -8.890879699385271 -1.9283408338578245
rclavicle 2.38542e-15 -1.58034e-14
rhumerus 8.543508324839296 -19.742568356550045 24.984541197344445
rradius 54.070344187570555
rwrist -27.862407934522324
rhand -25.078101494421688 -36.66274083896973
rfingers 8.136099011937542
rthumb 4.059361671394834 -68.53333837335809
lclavicle 2.38542e-15 -1.58034e-14
lhumerus -11.433780574750555 0.8117058306478824 -48.43107948923966
lradius 5.808605755420461
lwrist 28.109363637272683
lhand -16.259922324528134 -30.470298865486082
lfingers 8.676977100126846
lthumb 10.141023639117599 -2.128359737949622
rfemur 1.8157604037273818 0.49761227860136736 1.0471228839381381
rtibia 30.985756618631843
rfoot 19.820741220966507 -19.59771400326985
rtoes 27.676198401681912
lfemur -8.962744178692969 -13.575734612768036 -1.009063231200515
ltibia 55.50698277586757
lfoot 41.27409558136305 7.544117917718114
ltoes 4.47688
1674
root 11.1529 4.15172 10.6304 -82.5439 2.91446 168.791
lowerback -15.10948461262697 -5.650741260449295 -3.490295208069203
upperback -7.818372562954151 -8.66370088137336 10.755319833933726
thorax -0.042554724452660245 -5.907355656973763 9.985788225903057
lowerneck -2.3618194453025643 -18.586988793866343 13.624804859444966
upperneck -30.43918841541084 -23.429849049633738 -0.2751406529707239
head -10.657602364852115 -8.922625174158405 -1.849143421661024
rclavicle 2.38542e-15 -1.58034e-14
rhumerus 8.50465757944021 -19.737294762154654 24.601073988755935
rradius 56.24110286592214
rwrist -27.786301982571295
rhand -25.07742755079391 -36.731305955090264
rfingers 8.145634994152081
rthumb 4.021590787274077 -68.5426504416335
lclavicle 2.38542e-15 -1.58034e-14
lhumerus -8.501674302544014 3.9576026697868723 -47.48716503340531
lradius 3.687221128439618
lwrist 28.103671847073983
lhand -16.277868103421717 -30.429114552091242
lfingers 8.698852611122799
lthumb 10.102079860212058 -2.1295541893719685
rfemur 1.998022147506228 0.6721046918988431 1.0839968418457273
rtibia 28.36095745359462
rfoot 20.154870831000114 -19.804407262735538
rtoes 28.01282158617564
lfemur -9.160244429318105 -13.3649649806541 -1.4603576458119465
ltibia 50.92157827054491
lfoot 41.20021802389404 8.01593718345216
ltoes 4.47688
1675
root 11.1529 4.15172 10.6304 -82.5439 2.91446 168.791
lowerback -15.10200407908707 -5.636063134488369 -3.48647093296333
upperback -7.869273223855115 -8.740601243391646 10.844536462828936
thorax -0.04435575239240944 -5.943936088026083 10.066717829427663
lowerneck -2.2813247745829464 -18.595350666167096 13.620847906113726
upperneck -30.52867569372562 -23.461099542857887 -0.189022365751931
head -10.735179142244446 -8.986668688112873 -1.8525574452795075
rclavicle 2.38542e-15 -1.58034e-14
rhumerus 8.9779028372436 -18.807932671485368 20.74173164293077
rradius 58.54226734954714
rwrist -27.76670608174193
rhand -25.1515486296154 -36.649701979842895
rfingers 8.083162439643441
rthumb 4.078210245427962 -68.57086346024434
lclavicle 2.38542e-15 -1.58034e-14
lhumerus -7.950083755844446 1.7726484638539581 -43.46510455518212
lradius 3.9451275185484773
lwrist 28.177870559532163
lhand -16.370065485871372 -30.46608330954662
lfingers 8.648050801683969
lthumb 10.151295959093913 -2.1813665750883056
rfemur 1.8190563604896162 0.5094487813811481 0.5889279284107728
rtibia 25.932258153781603
rfoot 19.746108495661094 -20.164365397146348
rtoes 28.096457108392162
lfemur -8.85934803121634 -13.818103110290991 -1.0991479020716954
ltibia 51.08895229975922
lfoot 41.526291021276705 8.267168483932403
ltoes 4.47688
